<svg width="28" height="27" viewBox="0 0 28 27" fill="none" xmlns="http://www.w3.org/2000/svg">
<path d="M16.043 20.8064C13.8667 19.998 11.6281 19.8737 9.57614 20.4333C8.14596 20.8064 6.77796 21.5526 5.53432 22.4853L4.66376 23.2315L4.41504 23.4802L4.97467 23.9777C5.03685 23.9777 5.03686 24.0399 5.09904 24.102C5.22341 24.2264 5.34778 24.2886 5.53432 24.4129L5.9074 24.6617L6.28049 24.3508C6.34268 24.2886 6.46704 24.1642 6.5914 24.102C7.71068 23.1693 8.95431 22.5475 10.2601 22.2366C11.939 21.8013 13.7423 21.8635 15.5456 22.5475C17.0379 23.1071 20.0849 23.7911 23.7536 22.2366L23.878 22.1744L24.0645 21.9879C24.0645 21.9257 24.1267 21.9257 24.1889 21.8635C24.4998 21.4904 24.8107 21.1173 25.0594 20.682L26.303 18.7544L24.3132 19.8737C21.3907 21.4904 18.7169 21.8013 16.043 20.8064Z" fill="#55B02E"/>
<path d="M7.52364 14.0906C9.20255 13.6553 11.0058 13.7175 12.8091 14.4015C14.7989 15.1477 19.8978 16.2048 25.6186 11.0437L26.5513 10.111L26.6135 10.0488L26.8622 9.80006L26.7378 9.48915C26.6756 9.24042 26.5513 8.92952 26.4269 8.61861L26.116 7.74805L25.4942 8.36987C25.432 8.49423 25.3076 8.55641 25.1833 8.68077C22.4473 11.479 18.2189 14.3393 13.3687 12.5982C11.1924 11.7899 8.95382 11.6655 6.90182 12.2251C4.91201 12.7848 3.17091 13.8419 1.55418 15.3342V15.2721L0.621456 16.267C0.621456 16.3291 0.559286 16.3292 0.497104 16.3913L0.310547 16.5779L0.372732 16.8266C0.434914 17.1375 0.559274 17.4484 0.621456 17.7593L0.994551 18.7542L1.61637 17.9459C1.67855 17.8215 1.80291 17.7593 1.86509 17.635C3.17091 16.4535 4.97419 14.7746 7.52364 14.0906Z" fill="#55B02E"/>
<path d="M1.49238 12.9715C2.92256 11.4792 4.53928 10.5464 6.28037 10.049C7.95928 9.61371 9.76255 9.67589 11.5658 10.3599C17.1622 12.4119 22.0124 9.05408 24.1266 7.2508L24.9349 6.44245L25.2458 6.19371L24.9971 5.82063C24.8106 5.63408 24.6862 5.38535 24.4997 5.13663L24.1266 4.63916L23.6913 5.07444C23.6291 5.13662 23.5047 5.26098 23.4426 5.32316C20.8309 7.81044 16.7891 10.3599 12.1876 8.61881C10.0113 7.81045 7.77273 7.68608 5.72074 8.24572C4.41492 8.61881 3.17128 9.24062 1.92764 10.049L0.621818 11.1061C0.497455 11.2304 0.435273 11.2926 0.310909 11.417L0.186557 11.5413V11.7279C0.124375 12.1632 0.124367 12.5984 0.0621856 12.9715L0 14.5261L1.0571 13.4068C1.18146 13.2824 1.30583 13.0959 1.49238 12.9715Z" fill="#55B02E"/>
<path d="M17.8466 25.0349L17.7222 25.408L17.8466 25.0349C17.66 24.9727 17.5357 24.9105 17.3491 24.8483C15.1728 24.04 12.9342 23.9156 10.8822 24.4753C10.4469 24.5996 10.0117 24.724 9.57639 24.9105L8.08401 25.5945L7.71094 25.7811L8.95457 26.2163C9.32766 26.3407 9.70075 26.4651 10.0738 26.5894L10.2604 26.6516L10.4469 26.5894C10.6335 26.5273 10.82 26.4029 11.0066 26.4029C11.1309 26.4029 11.2553 26.3407 11.3797 26.2785C12.872 25.9054 14.4887 25.9054 16.2298 26.4651C16.4164 26.5272 16.5408 26.5894 16.7273 26.6516L17.0382 26.776L17.2247 26.7138C17.66 26.5894 18.1575 26.4651 18.5306 26.2785L20.2717 25.6567L18.4684 25.2214C18.2818 25.1592 18.0331 25.0971 17.8466 25.0349Z" fill="#55B02E"/>
<path d="M27.3597 12.1631L26.427 13.0958C26.3027 13.2202 26.1783 13.3445 26.0539 13.4689C23.5045 15.894 19.4005 18.5056 14.799 16.7645C12.6227 15.9562 10.3841 15.8318 8.33213 16.3915C6.40449 16.9511 4.66338 17.946 3.10884 19.4384L2.30048 20.3089L2.05176 20.6198L2.30048 20.9929C2.48703 21.2416 2.6114 21.4282 2.73576 21.6769L3.10884 22.2365L3.54412 21.6769C3.6063 21.6147 3.73066 21.4904 3.79284 21.4282C5.2852 19.8114 6.90193 18.8165 8.76739 18.3191C10.4463 17.8838 12.2496 17.946 14.0528 18.63C15.6074 19.1896 17.2241 19.3762 18.8408 19.1896C21.7012 18.8787 24.5616 17.262 26.6758 15.4587C26.8001 15.3344 26.9245 15.2722 27.0488 15.1478L27.2354 14.9613V14.7747C27.2354 14.4016 27.2976 13.9664 27.2976 13.5933L27.3597 12.1631Z" fill="#55B02E"/>
<path d="M3.73045 6.44226L3.54391 6.06916L3.73045 6.44226C4.10354 6.25571 4.53883 6.13134 4.91192 6.00698C6.59083 5.5717 8.3941 5.63389 10.1974 6.31789C11.3788 6.75316 12.5603 6.9397 13.8661 6.9397C16.4777 6.9397 19.0894 6.00698 21.5145 4.20371L22.4472 3.45752L22.7581 3.20879L22.1985 2.77351C22.0119 2.58697 21.7632 2.40043 21.5145 2.27607L21.1414 2.02734L20.8305 2.27607C20.7061 2.33825 20.6439 2.46261 20.5195 2.52479C17.2239 5.01206 13.9283 5.69607 10.8192 4.51462C8.58065 3.70625 6.34209 3.51971 4.10355 4.20371C3.917 4.26589 3.73045 4.32806 3.48173 4.39025L3.35738 4.45243L3.17082 4.63897C3.17082 4.70115 3.10865 4.70116 3.04647 4.76334C2.79774 5.13643 2.48682 5.44735 2.23809 5.82044L1.05664 7.62371L2.98428 6.62879C3.29519 6.62879 3.54391 6.50444 3.73045 6.44226Z" fill="#55B02E"/>
<path d="M8.82967 2.21393L9.01621 2.27611C9.82457 2.58702 11.0682 2.89793 12.6228 2.89793C14.2395 2.89793 15.794 2.52484 17.3486 1.90302L19.2762 0.970292L17.9704 0.53503C17.5973 0.410667 17.2242 0.286303 16.7889 0.224121H16.6024L16.4159 0.286288C16.2293 0.34847 16.0428 0.472848 15.8562 0.53503C13.9908 1.21903 12.1253 1.34339 10.322 0.845939C10.1355 0.783757 9.94894 0.721564 9.7624 0.659382L9.57586 0.597197L9.3893 0.659382C9.01621 0.783746 8.64313 0.908117 8.27004 1.09466L6.83984 1.71648L8.33222 2.15174C8.45659 2.08956 8.64312 2.15175 8.82967 2.21393Z" fill="#55B02E"/>
</svg>
